<svg width="19" height="15" xmlns="http://www.w3.org/2000/svg"><path d="M16.516 3.722c.008.162.01.326.01.488 0 4.99-3.796 10.742-10.74 10.742-2.132 0-4.115-.625-5.786-1.697a7.577 7.577 0 0 0 5.588-1.562 3.777 3.777 0 0 1-3.526-2.62c.23.042.467.065.71.065.345 0 .68-.045.995-.13A3.783 3.783 0 0 1 .74 5.303v-.047c.508.283 1.09.453 1.71.473A3.767 3.767 0 0 1 .77 2.587c0-.69.185-1.34.51-1.898a10.722 10.722 0 0 0 7.782 3.944A3.773 3.773 0 0 1 12.74 0c1.085 0 2.066.457 2.755 1.19a7.591 7.591 0 0 0 2.397-.915c-.282.88-.88 1.62-1.66 2.088a7.55 7.55 0 0 0 2.168-.594 7.651 7.651 0 0 1-1.884 1.952z" fill-rule="evenodd"/></svg>