<svg width="19" height="16" xmlns="http://www.w3.org/2000/svg"><path d="M12.38 9.109c-.718 0-1.3.807-1.3 1.799 0 .994.582 1.801 1.3 1.801.718 0 1.3-.807 1.3-1.801-.001-.992-.582-1.799-1.3-1.799zm4.526-4.683c.149-.365.155-2.439-.635-4.426 0 0-1.811.199-4.551 2.08-.575-.16-1.548-.238-2.519-.238-.973 0-1.945.078-2.52.238C3.94.199 2.129 0 2.129 0c-.789 1.987-.781 4.061-.634 4.426C.567 5.434 0 6.645 0 8.297c0 7.186 5.963 7.301 7.467 7.301l1.734.002 1.732-.002c1.506 0 7.467-.115 7.467-7.301 0-1.652-.566-2.863-1.494-3.871zM9.228 14.715h-.056c-3.771 0-6.709-.449-6.709-4.115 0-.879.31-1.693 1.047-2.369C4.737 7.104 6.815 7.7 9.172 7.7h.056c2.357 0 4.436-.596 5.664.531.735.676 1.045 1.49 1.045 2.369 0 3.666-2.937 4.115-6.709 4.115zM6.021 9.109c-.718 0-1.3.807-1.3 1.799 0 .994.582 1.801 1.3 1.801.719 0 1.301-.807 1.301-1.801 0-.992-.582-1.799-1.301-1.799z" fill-rule="evenodd"/></svg>