<svg width="16" height="21" xmlns="http://www.w3.org/2000/svg"><path d="M8.924 11.762h3.558L6.507.062.598 11.777H.78c1.075-.002 2.15-.006 3.226-.004.106 0 .16-.03.21-.127.748-1.494 1.5-2.985 2.253-4.477l.058-.102.065.125 1.536 3c.268.524.533 1.05.8 1.574l-.004-.004.004.004H6.27l4.44 8.69 4.387-8.7c-.054-.006-.086-.013-.117-.013-.795.002-1.59.005-2.385.004-.097 0-.147.036-.19.123-.544 1.088-1.092 2.174-1.639 3.26-.019.039-.041.075-.069.124l-.043-.071-1.7-3.328c-.015-.029-.021-.062-.031-.093z" fill-rule="evenodd"/></svg>